<svg width="64" height="64" viewBox="0 0 64 64" fill="none" xmlns="http://www.w3.org/2000/svg">
<path d="M0 4C0 1.79086 1.79086 0 4 0H60C62.2091 0 64 1.79086 64 4V60C64 62.2091 62.2091 64 60 64H4C1.79086 64 0 62.2091 0 60V4Z" fill="#2A2F45"/>
<path d="M29.1258 24.6553C29.1258 23.0985 30.4032 22.4998 32.5187 22.4998C35.5524 22.4998 39.3844 23.4179 42.4181 25.0545V15.674C39.105 14.3567 35.8318 13.8378 32.5187 13.8378C24.4156 13.8378 19.0269 18.069 19.0269 25.1343C19.0269 36.1513 34.1953 34.395 34.1953 39.1451C34.1953 40.9813 32.5986 41.58 30.3632 41.58C27.0501 41.58 22.819 40.2229 19.4659 38.3867V47.8869C23.1782 49.4836 26.9304 50.1622 30.3632 50.1622C38.6659 50.1622 44.3741 46.0507 44.3741 38.9056C44.3341 27.0104 29.1258 29.126 29.1258 24.6553Z" fill="white"/>
</svg>
